<svg width="800" height="800" viewBox="0 0 800 800" fill="none" xmlns="http://www.w3.org/2000/svg">
<path fill-rule="evenodd" clip-rule="evenodd" d="M400 600C510.457 600 600 510.457 600 400C600 289.543 510.457 200 400 200C289.543 200 200 289.543 200 400C200 510.457 289.543 600 400 600ZM400 533.333C473.637 533.333 533.333 473.637 533.333 400C533.333 326.362 473.637 266.667 400 266.667C326.362 266.667 266.667 326.362 266.667 400C266.667 473.637 326.362 533.333 400 533.333Z" fill="white"/>
<path d="M600 166.667C581.59 166.667 566.667 181.591 566.667 200C566.667 218.409 581.59 233.333 600 233.333C618.41 233.333 633.333 218.409 633.333 200C633.333 181.591 618.41 166.667 600 166.667Z" fill="white"/>
<path fill-rule="evenodd" clip-rule="evenodd" d="M55.1319 142.535C33.3333 185.318 33.3333 241.323 33.3333 353.333V446.667C33.3333 558.677 33.3333 614.683 55.1319 657.463C74.3066 695.097 104.903 725.693 142.535 744.867C185.318 766.667 241.323 766.667 353.333 766.667H446.667C558.677 766.667 614.683 766.667 657.463 744.867C695.097 725.693 725.693 695.097 744.867 657.463C766.667 614.683 766.667 558.677 766.667 446.667V353.333C766.667 241.323 766.667 185.318 744.867 142.535C725.693 104.903 695.097 74.3067 657.463 55.132C614.683 33.3334 558.677 33.3334 446.667 33.3334H353.333C241.323 33.3334 185.318 33.3334 142.535 55.132C104.903 74.3067 74.3066 104.903 55.1319 142.535ZM446.667 100H353.333C296.228 100 257.408 100.052 227.403 102.503C198.175 104.891 183.228 109.22 172.801 114.532C147.713 127.316 127.316 147.713 114.532 172.801C109.22 183.228 104.891 198.175 102.503 227.403C100.052 257.408 99.9999 296.228 99.9999 353.333V446.667C99.9999 503.773 100.052 542.59 102.503 572.597C104.891 601.827 109.22 616.773 114.532 627.2C127.316 652.287 147.713 672.683 172.801 685.467C183.228 690.78 198.175 695.11 227.403 697.497C257.408 699.947 296.228 700 353.333 700H446.667C503.773 700 542.59 699.947 572.597 697.497C601.827 695.11 616.773 690.78 627.2 685.467C652.287 672.683 672.683 652.287 685.467 627.2C690.78 616.773 695.11 601.827 697.497 572.597C699.947 542.59 700 503.773 700 446.667V353.333C700 296.228 699.947 257.408 697.497 227.403C695.11 198.175 690.78 183.228 685.467 172.801C672.683 147.713 652.287 127.316 627.2 114.532C616.773 109.22 601.827 104.891 572.597 102.503C542.59 100.052 503.773 100 446.667 100Z" fill="white"/>
</svg>
