<svg width="800" height="800" viewBox="0 0 800 800" fill="none" xmlns="http://www.w3.org/2000/svg">
<path d="M216.667 266.667C244.281 266.667 266.667 244.281 266.667 216.667C266.667 189.052 244.281 166.667 216.667 166.667C189.052 166.667 166.667 189.052 166.667 216.667C166.667 244.281 189.052 266.667 216.667 266.667Z" fill="white"/>
<path d="M166.667 333.333C166.667 314.924 181.591 300 200 300H233.333C251.743 300 266.667 314.924 266.667 333.333V600C266.667 618.41 251.743 633.333 233.333 633.333H200C181.591 633.333 166.667 618.41 166.667 600V333.333Z" fill="white"/>
<path d="M366.667 633.333H400C418.41 633.333 433.333 618.41 433.333 600V450C433.333 400 533.333 366.667 533.333 433.333V600.013C533.333 618.423 548.257 633.333 566.667 633.333H600C618.41 633.333 633.333 618.41 633.333 600V400C633.333 333.333 583.333 300 516.667 300C450 300 433.333 350 433.333 350V333.333C433.333 314.924 418.41 300 400 300H366.667C348.257 300 333.333 314.924 333.333 333.333V600C333.333 618.41 348.257 633.333 366.667 633.333Z" fill="white"/>
<path fill-rule="evenodd" clip-rule="evenodd" d="M666.667 33.3334C721.897 33.3334 766.667 78.105 766.667 133.333V666.667C766.667 721.897 721.897 766.667 666.667 766.667H133.333C78.1049 766.667 33.3333 721.897 33.3333 666.667V133.333C33.3333 78.105 78.1049 33.3334 133.333 33.3334H666.667ZM666.667 100C685.077 100 700 114.924 700 133.333V666.667C700 685.077 685.077 700 666.667 700H133.333C114.924 700 99.9999 685.077 99.9999 666.667V133.333C99.9999 114.924 114.924 100 133.333 100H666.667Z" fill="white"/>
</svg>
